<svg width="430" height="430" viewBox="0 0 430 430" fill="none" xmlns="http://www.w3.org/2000/svg">
<path d="M107.3 391.8C105.1 391.8 102.8 391.1 100.9 389.7C97.0999 386.9 95.4999 382 96.8999 377.5L135.5 258.6L34.4999 185.1C30.6999 182.3 29.0999 177.4 30.4999 172.9C31.8999 168.4 36.0999 165.4 40.8999 165.4H165.9L204.5 46.5C206 42 210.1 39 214.9 39C219.7 39 223.8 42 225.3 46.5L263.9 165.4H388.9C393.6 165.4 397.8 168.4 399.3 172.9C400.8 177.4 399.2 182.3 395.3 185.1L294.1 258.6L332.7 377.5C334.2 382 332.6 386.9 328.7 389.7C324.8 392.5 319.7 392.5 315.9 389.7L214.9 316.2L113.7 389.7C111.8 391.1 109.6 391.8 107.3 391.8ZM214.9 303.6C217.1 303.6 219.4 304.3 221.3 305.7L319.9 377.3L282.3 261.4C280.8 256.9 282.4 252 286.3 249.2L384.9 177.6H262.9C258.2 177.6 254 174.6 252.5 170.1L214.9 54.3L177.3 170.2C175.8 174.7 171.7 177.7 166.9 177.7H45.0999L143.7 249.3C147.5 252.1 149.1 257 147.6 261.5L109.9 377.3L208.5 305.7C210.4 304.3 212.7 303.6 214.9 303.6Z" fill="url(#paint0_linear_2174_7229)"/>
<defs>
<linearGradient id="paint0_linear_2174_7229" x1="85.6112" y1="116.079" x2="344.071" y2="374.539" gradientUnits="userSpaceOnUse">
<stop stop-color="#CB5EEE"/>
<stop offset="1" stop-color="#4BE1EC"/>
</linearGradient>
</defs>
</svg>
