<svg width="430" height="430" viewBox="0 0 430 430" fill="none" xmlns="http://www.w3.org/2000/svg">
<path d="M147 75.4999C124.972 75.4999 103.027 83.8879 86.2576 100.657C74.2363 112.679 66.4762 127.315 63.1347 142.837C62.4373 146.077 64.498 149.268 67.7375 149.965C70.977 150.663 74.1685 148.602 74.8659 145.363C77.7244 132.085 84.3643 119.521 94.7429 109.143C109.174 94.7119 128.028 87.4999 147 87.4999C154.568 87.4999 164.842 90.8802 175.698 96.3568C178.656 97.8493 182.265 96.661 183.757 93.7024C185.25 90.7439 184.061 87.1356 181.103 85.643C169.758 79.9196 157.432 75.4999 147 75.4999Z" fill="url(#paint0_linear_2694_7085)"/>
<path fill-rule="evenodd" clip-rule="evenodd" d="M364.146 234.241C364.514 233.873 364.827 233.465 365.083 233.027C383.985 213.521 395.628 186.915 395.628 157.6C395.628 97.7323 347.096 49.2 287.228 49.2C259.355 49.2 233.93 59.7274 214.728 77.0115C195.527 59.7274 170.102 49.2 142.228 49.2C82.3607 49.2 33.8284 97.7323 33.8284 157.6C33.8284 189.456 47.5772 218.109 69.4459 237.933L210.757 379.243C211.883 380.368 213.409 381 215.001 381C216.593 381 218.119 380.367 219.244 379.241L364.146 234.241ZM45.8284 157.6C45.8284 104.36 88.9881 61.2 142.228 61.2C168.894 61.2 193.022 72.0191 210.48 89.5219C211.606 90.6504 213.134 91.2846 214.728 91.2846C216.322 91.2846 217.851 90.6504 218.976 89.5219C236.435 72.0191 260.562 61.2 287.228 61.2C340.469 61.2 383.628 104.36 383.628 157.6C383.628 184.194 372.868 208.263 355.448 225.71C355.094 226.065 354.79 226.458 354.54 226.878L214.998 366.513L77.8258 229.343C77.7545 229.271 77.6815 229.202 77.6067 229.134C58.0825 211.485 45.8284 185.978 45.8284 157.6Z" fill="url(#paint1_linear_2694_7085)"/>
<defs>
<linearGradient id="paint0_linear_2694_7085" x1="88.2289" y1="121.691" x2="331.116" y2="374.325" gradientUnits="userSpaceOnUse">
<stop stop-color="#CB5EEE"/>
<stop offset="1" stop-color="#4BE1EC"/>
</linearGradient>
<linearGradient id="paint1_linear_2694_7085" x1="88.2289" y1="121.691" x2="331.116" y2="374.325" gradientUnits="userSpaceOnUse">
<stop stop-color="#CB5EEE"/>
<stop offset="1" stop-color="#4BE1EC"/>
</linearGradient>
</defs>
</svg>
