<svg width="430" height="430" viewBox="0 0 430 430" fill="none" xmlns="http://www.w3.org/2000/svg">
<path d="M221.381 313.648C221.381 317.79 218.023 321.148 213.881 321.148C209.739 321.148 206.381 317.79 206.381 313.648C206.381 309.506 209.739 306.148 213.881 306.148C218.023 306.148 221.381 309.506 221.381 313.648Z" fill="url(#paint0_linear_2035_518)"/>
<path d="M213.881 346.173C218.023 346.173 221.381 342.815 221.381 338.673C221.381 334.531 218.023 331.173 213.881 331.173C209.739 331.173 206.381 334.531 206.381 338.673C206.381 342.815 209.739 346.173 213.881 346.173Z" fill="url(#paint1_linear_2035_518)"/>
<path d="M221.381 363.698C221.381 367.84 218.023 371.198 213.881 371.198C209.739 371.198 206.381 367.84 206.381 363.698C206.381 359.556 209.739 356.198 213.881 356.198C218.023 356.198 221.381 359.556 221.381 363.698Z" fill="url(#paint2_linear_2035_518)"/>
<path fill-rule="evenodd" clip-rule="evenodd" d="M286.745 96.225C286.704 96.1431 286.662 96.0625 286.618 95.9828C282.403 87.9525 277.411 80.6042 271.502 74.2409C257.682 59.3593 239.099 50.1578 214.761 50.0001L214.722 50C190.889 50 172.659 59.293 159.071 74.2877C153.3 80.6568 148.4 88.0113 144.242 96.0463C144.201 96.1205 144.162 96.1959 144.125 96.2722C138.678 106.849 134.507 118.596 131.313 130.821C120.395 172.612 120.418 221.932 121.77 254.893C101.506 270.388 88.4431 294.814 88.4431 322.347V353.914C88.4431 359.845 90.9001 365.19 94.6655 368.956C98.5723 372.862 103.932 375.178 109.707 375.178H128.889C147.133 376.631 156.602 380.572 163.782 384.103C164.75 384.578 165.708 385.067 166.669 385.557L166.672 385.559C172.936 388.754 179.301 392 188.937 392H241.064C250.699 392 257.064 388.754 263.328 385.559L263.331 385.557C264.292 385.067 265.25 384.578 266.218 384.103C273.399 380.572 282.867 376.631 301.111 375.178H320.293C326.069 375.178 331.428 372.862 335.335 368.956C339.1 365.19 341.557 359.845 341.557 353.914V322.347C341.557 294.574 328.266 269.963 307.699 254.49C309.671 220.998 310.281 171.886 299.489 130.365C296.348 118.282 292.202 106.68 286.745 96.225ZM155.151 101.079C153.43 107.933 152.424 118.129 151.866 127.062C151.666 130.249 151.528 133.211 151.431 135.712C186.258 127.169 206.327 112.554 217.681 100.297C223.57 93.9393 227.183 88.1424 229.302 84.0195C230.362 81.957 231.049 80.3125 231.459 79.2263C231.664 78.6832 231.799 78.2802 231.878 78.0347C231.917 77.9119 231.942 77.8286 231.954 77.787L231.962 77.7598C232.44 76.0173 233.678 74.5822 235.333 73.8543C236.997 73.1222 238.904 73.1843 240.517 74.0232C259.877 84.0905 270.436 97.9918 276.17 110.604C276.088 109.426 276.001 108.217 275.911 106.976L275.911 106.973L275.911 106.966L275.91 106.951C275.763 104.908 275.609 102.779 275.461 100.56C271.797 93.7503 267.569 87.6399 262.709 82.4068C251.104 69.9106 235.662 62.1406 214.702 62C194.427 62.0049 179.383 69.7437 167.963 82.3456C163.086 87.7278 158.838 94.0375 155.151 101.079ZM298.048 262.321C298.084 262.347 298.12 262.372 298.157 262.397C317.135 275.538 329.557 297.467 329.557 322.347V353.914C329.557 356.498 328.483 358.836 326.849 360.47C325.149 362.171 322.824 363.178 320.293 363.178H300.875C300.719 363.178 300.563 363.184 300.407 363.196C280.279 364.77 269.288 369.221 260.923 373.334C259.762 373.905 258.688 374.446 257.677 374.956C251.464 378.087 247.669 380 241.064 380H188.937C182.331 380 178.536 378.087 172.324 374.956C171.313 374.447 170.238 373.905 169.077 373.334C160.712 369.221 149.721 364.77 129.593 363.196C129.437 363.184 129.281 363.178 129.125 363.178H109.707C107.176 363.178 104.851 362.171 103.151 360.47C101.517 358.836 100.443 356.498 100.443 353.914V322.347C100.443 298.018 112.321 276.51 130.593 263.282C131.131 263.012 131.623 262.664 132.052 262.253C138.439 257.863 145.562 254.466 153.2 252.283C162.099 274.947 184.168 291 210 291H220C245.832 291 267.901 274.947 276.8 252.283C284.478 254.478 291.635 257.899 298.048 262.321ZM296.079 247.141C297.688 214.546 297.509 170.76 287.977 133.781C287.226 137.77 285.774 141.591 282.992 144.517V171.573C282.992 194.597 271.44 214.909 253.813 227.033V237.533H256.847C262.24 237.533 267.574 238.094 272.62 238.972C272.653 238.977 272.685 238.983 272.717 238.989C273.164 239.075 273.609 239.163 274.053 239.256C274.089 239.263 274.125 239.27 274.16 239.278C281.908 240.897 289.267 243.57 296.079 247.141ZM264.76 249.974C262.126 249.691 259.477 249.533 256.847 249.533H247.813C244.499 249.533 241.813 246.847 241.813 243.533V233.597C233.792 236.972 224.979 238.838 215.727 238.838H214.273C205.021 238.838 196.208 236.972 188.187 233.597V243.533C188.187 246.847 185.501 249.533 182.187 249.533H173.153C170.523 249.533 167.874 249.691 165.24 249.974C172.887 267.083 190.058 279 210 279H220C239.942 279 257.113 267.083 264.76 249.974ZM155.946 239.256C156.39 239.163 156.836 239.075 157.283 238.989C157.315 238.983 157.347 238.977 157.38 238.972C162.427 238.094 167.76 237.533 173.153 237.533H176.187V227.033C158.56 214.909 147.008 194.597 147.008 171.573V149.023C146.72 149.075 146.428 149.124 146.135 149.169C144.394 149.437 142.623 148.926 141.292 147.771C140.793 147.339 140.375 146.833 140.049 146.276C133.064 180.545 132.59 218.59 133.504 247.361C140.433 243.68 147.934 240.93 155.841 239.278C155.876 239.27 155.911 239.263 155.946 239.256ZM159.008 171.573V146.151C193.177 136.932 214.013 121.915 226.485 108.452C233.189 101.214 237.41 94.4967 239.975 89.5046C240.247 88.9746 240.501 88.4641 240.737 87.9746C267.369 104.824 270.586 130.353 270.856 138.836L270.858 138.884C270.859 138.909 270.86 138.934 270.862 138.96C270.906 139.81 270.905 140.456 270.895 140.862C270.88 141.461 270.908 142.05 270.992 142.619V171.573C270.992 202.11 246.265 226.838 215.727 226.838H214.273C183.735 226.838 159.008 202.11 159.008 171.573Z" fill="url(#paint3_linear_2035_518)"/>
<defs>
<linearGradient id="paint0_linear_2035_518" x1="157.292" y1="121.707" x2="350.423" y2="275.724" gradientUnits="userSpaceOnUse">
<stop stop-color="#CB5EEE"/>
<stop offset="1" stop-color="#4BE1EC"/>
</linearGradient>
<linearGradient id="paint1_linear_2035_518" x1="157.292" y1="121.707" x2="350.423" y2="275.724" gradientUnits="userSpaceOnUse">
<stop stop-color="#CB5EEE"/>
<stop offset="1" stop-color="#4BE1EC"/>
</linearGradient>
<linearGradient id="paint2_linear_2035_518" x1="157.292" y1="121.707" x2="350.423" y2="275.724" gradientUnits="userSpaceOnUse">
<stop stop-color="#CB5EEE"/>
<stop offset="1" stop-color="#4BE1EC"/>
</linearGradient>
<linearGradient id="paint3_linear_2035_518" x1="157.292" y1="121.707" x2="350.423" y2="275.724" gradientUnits="userSpaceOnUse">
<stop stop-color="#CB5EEE"/>
<stop offset="1" stop-color="#4BE1EC"/>
</linearGradient>
</defs>
</svg>
