<svg width="430" height="430" viewBox="0 0 430 430" fill="none" xmlns="http://www.w3.org/2000/svg">
<path d="M292.024 146.461C294.367 144.118 294.367 140.319 292.024 137.976C289.681 135.633 285.882 135.633 283.539 137.976L216.364 205.151C214.02 207.494 214.02 211.293 216.364 213.637C218.707 215.98 222.506 215.98 224.849 213.637L292.024 146.461Z" fill="url(#paint0_linear_2170_3283)"/>
<path fill-rule="evenodd" clip-rule="evenodd" d="M318.894 46.0523C321.237 43.7091 325.036 43.7091 327.379 46.0523L383.948 102.621C386.291 104.964 386.291 108.763 383.948 111.106L348.593 146.461L348.56 146.494L157.72 337.333C157.576 337.481 157.423 337.622 157.264 337.754C156.649 338.266 155.957 338.635 155.229 338.863L70.5231 367.156C68.3676 367.876 65.9902 367.317 64.3822 365.711C62.7742 364.105 62.2116 361.728 62.929 359.572L91.1261 274.806C91.4042 273.899 91.9021 273.044 92.6199 272.326L283.539 81.4075L283.571 81.3751L318.894 46.0523ZM335.865 142.219L153.431 324.652L105.348 276.569L287.781 94.1354L335.865 142.219ZM99.4897 287.681L142.329 330.52L78.1032 351.973L99.4897 287.681Z" fill="url(#paint1_linear_2170_3283)"/>
<defs>
<linearGradient id="paint0_linear_2170_3283" x1="138.787" y1="102.032" x2="219.887" y2="357.624" gradientUnits="userSpaceOnUse">
<stop stop-color="#CA5EEE"/>
<stop offset="1" stop-color="#4BE1EC"/>
</linearGradient>
<linearGradient id="paint1_linear_2170_3283" x1="138.787" y1="102.032" x2="219.887" y2="357.624" gradientUnits="userSpaceOnUse">
<stop stop-color="#CA5EEE"/>
<stop offset="1" stop-color="#4BE1EC"/>
</linearGradient>
</defs>
</svg>
