<svg width="430" height="430" viewBox="0 0 430 430" fill="none" xmlns="http://www.w3.org/2000/svg">
<path fill-rule="evenodd" clip-rule="evenodd" d="M355 64H250.981C250.456 50.104 239.025 39 225 39H75C60.6406 39 49 50.6406 49 65V125C49 139.359 60.6406 151 75 151L114 151V185C114 187.213 115.218 189.246 117.169 190.29C119.12 191.334 121.487 191.22 123.328 189.992L180.011 152.204C183.135 163.059 193.14 171 205 171H248.183L306.672 209.992C308.513 211.22 310.88 211.334 312.831 210.29C314.782 209.246 316 207.213 316 205V171H355C369.359 171 381 159.359 381 145V90C381 75.6406 369.359 64 355 64ZM61 65C61 57.268 67.268 51 75 51H225C232.396 51 238.452 56.7347 238.965 64H205C190.641 64 179 75.6406 179 90V139.084C178.171 139.224 177.377 139.537 176.672 140.008L126 173.789V145C126 141.686 123.314 139 120 139L75 139C67.268 139 61 132.732 61 125V65ZM205 76C197.268 76 191 82.268 191 90V145C191 152.732 197.268 159 205 159L250 159C251.185 159 252.343 159.351 253.328 160.008L304 193.789V165C304 161.686 306.686 159 310 159H355C362.732 159 369 152.732 369 145V90C369 82.268 362.732 76 355 76H205Z" fill="url(#paint0_linear_2198_13683)"/>
<path fill-rule="evenodd" clip-rule="evenodd" d="M94 260C94 240.118 110.118 224 130 224C149.882 224 166 240.118 166 260C166 279.882 149.882 296 130 296C110.118 296 94 279.882 94 260ZM130 236C116.745 236 106 246.745 106 260C106 273.255 116.745 284 130 284C143.255 284 154 273.255 154 260C154 246.745 143.255 236 130 236Z" fill="url(#paint1_linear_2198_13683)"/>
<path fill-rule="evenodd" clip-rule="evenodd" d="M59 360C59 331.833 81.8335 309 110 309H150C178.167 309 201 331.833 201 360V375C201 378.314 198.314 381 195 381H65C61.6863 381 59 378.314 59 375V360ZM110 321C88.4609 321 71 338.461 71 360V369H189V360C189 338.461 171.539 321 150 321H110Z" fill="url(#paint2_linear_2198_13683)"/>
<path fill-rule="evenodd" clip-rule="evenodd" d="M300 224C280.118 224 264 240.118 264 260C264 279.882 280.118 296 300 296C319.882 296 336 279.882 336 260C336 240.118 319.882 224 300 224ZM276 260C276 246.745 286.745 236 300 236C313.255 236 324 246.745 324 260C324 273.255 313.255 284 300 284C286.745 284 276 273.255 276 260Z" fill="url(#paint3_linear_2198_13683)"/>
<path fill-rule="evenodd" clip-rule="evenodd" d="M229 360C229 331.833 251.833 309 280 309H320C348.167 309 371 331.833 371 360V375C371 378.314 368.314 381 365 381H235C231.686 381 229 378.314 229 375V360ZM280 321C258.461 321 241 338.461 241 360V369H359V360C359 338.461 341.539 321 320 321H280Z" fill="url(#paint4_linear_2198_13683)"/>
<defs>
<linearGradient id="paint0_linear_2198_13683" x1="157.605" y1="114.95" x2="340.681" y2="315.133" gradientUnits="userSpaceOnUse">
<stop stop-color="#CA5EEE"/>
<stop offset="1" stop-color="#4BE1EC"/>
</linearGradient>
<linearGradient id="paint1_linear_2198_13683" x1="157.605" y1="114.95" x2="340.681" y2="315.133" gradientUnits="userSpaceOnUse">
<stop stop-color="#CA5EEE"/>
<stop offset="1" stop-color="#4BE1EC"/>
</linearGradient>
<linearGradient id="paint2_linear_2198_13683" x1="157.605" y1="114.95" x2="340.681" y2="315.133" gradientUnits="userSpaceOnUse">
<stop stop-color="#CA5EEE"/>
<stop offset="1" stop-color="#4BE1EC"/>
</linearGradient>
<linearGradient id="paint3_linear_2198_13683" x1="157.605" y1="114.95" x2="340.681" y2="315.133" gradientUnits="userSpaceOnUse">
<stop stop-color="#CA5EEE"/>
<stop offset="1" stop-color="#4BE1EC"/>
</linearGradient>
<linearGradient id="paint4_linear_2198_13683" x1="157.605" y1="114.95" x2="340.681" y2="315.133" gradientUnits="userSpaceOnUse">
<stop stop-color="#CA5EEE"/>
<stop offset="1" stop-color="#4BE1EC"/>
</linearGradient>
</defs>
</svg>
